PathFileType	4	(X/Y/Z)	5_2_17_p0_0-237.trc
DataRate	CameraRate	NumFrames	NumMarkers	Units	OrigDataRate	OrigDataStartFrame	OrigNumFrames
60.0	60.0	4	27	m	60.0	0	238
Frame#	Time	RHip			RKnee			RAnkle			RBigToe			RSmallToe			RHeel			LHip			LKnee			LAnkle			LBigToe			LSmallToe			LHeel			Neck			Head			Nose			RShoulder			RElbow			RWrist			RThumb			RIndex			RPinky			LShoulder			LElbow			LWrist			LThumb			LIndex			LPinky			
		X1	Y1	Z1	X2	Y2	Z2	X3	Y3	Z3	X4	Y4	Z4	X5	Y5	Z5	X6	Y6	Z6	X7	Y7	Z7	X8	Y8	Z8	X9	Y9	Z9	X10	Y10	Z10	X11	Y11	Z11	X12	Y12	Z12	X13	Y13	Z13	X14	Y14	Z14	X15	Y15	Z15	X16	Y16	Z16	X17	Y17	Z17	X18	Y18	Z18	X19	Y19	Z19	X20	Y20	Z20	X21	Y21	Z21	X22	Y22	Z22	X23	Y23	Z23	X24	Y24	Z24	X25	Y25	Z25	X26	Y26	Z26	X27	Y27	Z27	
0	0.0	0.4266473657714243	0.47530764341254894	0.8243987826987037	0.4542291841327468	0.5389580905953735	1.2319398131815458	0.4671535014694454	0.6941786055202781	1.6532000789407881	0.4509917785988746	0.5145859118952157	1.644606465396707	0.49284010494190056	0.5799788875263661	1.67722939110712	0.46393211183071437	0.7796718975899035	1.7309931081521401	0.22918028988772435	0.47352747256366867	0.8553117071448171	0.26074631438644197	0.5744903009034585	1.2790039299089015	0.27465254040764	0.7292498501759621	1.6819414794557768	0.22668440353491665	0.4891835107887285	1.6561267200416712	0.1792699673925417	0.5868717579369789	1.6704426929232987	0.2991089101421799	0.7901945483228342	1.7348547780952033	0.26291809713837855	0.37935947933638675	0.30604731690724735	0.2553430411828389	0.3104130716312179	0.0629423878644222	0.28993441079133764	0.25464709093116555	0.21235957353751003	0.4302404381944985	0.4635994786166817	0.3739815197480455	0.5052790513350445	0.45968561118356277	0.6175006951857341	0.39309059531170554	0.3282244840659955	0.7575242886928754	0.3292629215479502	0.25106608723983903	0.7884866177963414	0.3235461609911181	0.2776867328397096	0.8219832066851738	0.33796689998934154	0.2954520960367478	0.8508689731745822	0.11512241930168024	0.4130221435457565	0.40913580621857387	0.11296908271417215	0.41582040924047925	0.6640873473824875	0.2680627227036471	0.30979546286331566	0.7732131241915626	0.3534246764307226	0.2772956304020602	0.7861637787619724	0.3540586707035092	0.27172438259543474	0.8259355054794578	0.3339413987013609	0.26985983135850666	0.8475242155974966
1	0.016666666666666666	0.4259545753395124	0.473457199455652	0.8275097009282061	0.455174219258434	0.5412757341122066	1.2367674969382998	0.45776866184718584	0.7089015955991722	1.660379087578925	0.45805179281897335	0.5375658346885709	1.6605398285643302	0.4962286071052387	0.5897913194295288	1.6851592284914012	0.46693329175073517	0.7920163831587728	1.7355580753106887	0.22899376098652735	0.4730320178879191	0.8553489585850813	0.26078281098160105	0.5745442714352806	1.2792633959677977	0.27476785616618293	0.7295707879833733	1.6820617734970749	0.22692451484372808	0.4890666715332781	1.6560820808104004	0.17938910651083134	0.5868041169003688	1.6703913968922803	0.29808512517664587	0.7904926936778132	1.7399072776940623	0.26300051447072703	0.3792417064770916	0.30599936070555633	0.2508469923401047	0.32140395547132516	0.06561221920958644	0.2919660169764367	0.2655112839655658	0.2115078395079494	0.4261808310195627	0.4750736321051306	0.3749712499523313	0.5002847613450497	0.470428338142964	0.6121053720389079	0.3885865656667757	0.3400815645490655	0.7596419519099508	0.3295535178758641	0.2541187338538819	0.795680537964016	0.3298428621033488	0.26895757444394625	0.8239906295128785	0.34301504404895583	0.29930995665184384	0.8545583778501521	0.12114502042439176	0.4007748890606898	0.4085400316728773	0.11109801021475679	0.4044897428978502	0.6592166688874066	0.26774501171820553	0.3072194469746226	0.7657147549016722	0.34949316209482517	0.3142733401429281	0.7955319199511992	0.3532744179162115	0.30408142326130144	0.8269882584729288	0.33020428859356216	0.28209748721321526	0.853917639168859
2	0.03333333333333333	0.4259371570182698	0.4732714662228205	0.8275004505682473	0.45519143727322103	0.5413400378467892	1.236863397508016	0.45652820739098415	0.7060416638901821	1.6549575243015333	0.45404962519181874	0.5237278095857417	1.6520849571282776	0.49631751279821734	0.5899903814622068	1.6854142334908992	0.4668642833172359	0.7917380918644861	1.7354379795044854	0.22763957029661175	0.459478699608218	0.8498419677596137	0.2581320269761401	0.562058855741817	1.280111630650163	0.27465006849268253	0.7297965731461717	1.6821394622486057	0.22702046777673388	0.48915053441877904	1.6560972882619638	0.18081738428644786	0.6012599617533265	1.676075346296167	0.2980021863358292	0.7910007612358487	1.7400299094799243	0.2630326432854285	0.379101109820095	0.30597525592400765	0.2508139440742799	0.3214657482098387	0.06552533232338327	0.28624398571721954	0.2773512124210161	0.20756930189049944	0.430870315086525	0.4630711165189041	0.37779245758313046	0.5001071651056895	0.47157912782143285	0.6150977667214491	0.38848193180120066	0.34057084423389306	0.7599117730420666	0.33449765144180726	0.26544497564422564	0.796302277562205	0.32431877209369364	0.28277083410986487	0.8235938330032144	0.3422357467687784	0.2975502157099406	0.8508356232588834	0.12113909105325223	0.400912837724507	0.40865996586059233	0.11103177547914495	0.40441007846885	0.6593511522071241	0.26841532034482296	0.3089930951128622	0.769538174866974	0.35354410669506703	0.3014429590856554	0.7889516333216943	0.3595210837519952	0.3057706562751245	0.8222993376995612	0.33662740622945414	0.28253210766380393	0.8530721274248177
3	0.05	0.4259768520178762	0.4736405225499127	0.8276521764062227	0.4552041869029511	0.5414604325423207	1.2370218118373	0.45779776796196436	0.7090327063643087	1.6604754261720713	0.45830996913818045	0.5381064783546683	1.661046163999646	0.496611440280205	0.5905590647814746	1.6857952552842113	0.4660534058436528	0.7939056688967678	1.7321409880600331	0.22780223727598328	0.46263288664727326	0.8578827552912096	0.2608407536462763	0.5782518314109518	1.2883985956396407	0.2745560535224037	0.7300600791926952	1.6823393204438677	0.22999271463783172	0.5056278238514234	1.6668105955631327	0.18690730629348798	0.5870110495460712	1.6693193250380172	0.2990392075042854	0.7896210158990778	1.7351371422568578	0.2630343696484506	0.37901256702752695	0.3060480986872421	0.2508456812478315	0.32134690979271363	0.06559684014626106	0.28631772824005763	0.27731827834135714	0.2076611845071695	0.43087356544317035	0.46235974943278324	0.3745958107504836	0.5029006801712897	0.4830647799041032	0.6125637401382539	0.38946352353891767	0.342432659649647	0.7637418942809545	0.3354711310828734	0.2664609659708161	0.7969562543156549	0.3256629534212549	0.2839570777193212	0.831032409239042	0.34478252211892085	0.3111688782699762	0.8562583585331015	0.12110588131634509	0.40097375871037777	0.40880351320811054	0.1109727424484834	0.4046503446840064	0.6596102380697562	0.27039442155954835	0.3202947472186616	0.770625446792694	0.3569812655890806	0.31386031577602175	0.7913108616357543	0.3632809571051381	0.3189869570910798	0.8314683875382399	0.3319896118888654	0.2945729437751602	0.855882055548738
